HIERARCHY
ROOT hip
{
	OFFSET 0.000000 0.000000 0.000000
	CHANNELS 6 Xposition Yposition Zposition Zrotation Yrotation Xrotation 
	JOINT lhipjoint
	{
		OFFSET 0.000000 0.000000 0.000000
		CHANNELS 3 Zrotation Yrotation Xrotation
		JOINT lfemur
		{
			OFFSET 1.363060 -1.794630 0.839290
			CHANNELS 3 Zrotation Yrotation Xrotation
			JOINT ltibia
			{
				OFFSET 2.448110 -6.726130 0.000000
				CHANNELS 3 Zrotation Yrotation Xrotation
				JOINT lfoot
				{
					OFFSET 2.562200 -7.039590 0.000000
					CHANNELS 3 Zrotation Yrotation Xrotation
					JOINT ltoes
					{
						OFFSET 0.157640 -0.433110 2.322550
						CHANNELS 3 Zrotation Yrotation Xrotation
						End Site
						{
							OFFSET 0.000000 0.000000 0.000000
						}
					}
				}
			}
		}
	}
	JOINT rhipjoint
	{
		OFFSET 0.000000 0.000000 0.000000
		CHANNELS 3 Zrotation Yrotation Xrotation
		JOINT rfemur
		{
			OFFSET -1.305520 -1.794630 0.839290
			CHANNELS 3 Zrotation Yrotation Xrotation
			JOINT rtibia
			{
				OFFSET -2.542530 -6.985550 0.000000
				CHANNELS 3 Zrotation Yrotation Xrotation
				JOINT rfoot
				{
					OFFSET -2.568260 -7.056230 0.000000
					CHANNELS 3 Zrotation Yrotation Xrotation
					JOINT rtoes
					{
						OFFSET -0.164730 -0.452590 2.363150
						CHANNELS 3 Zrotation Yrotation Xrotation
						End Site
						{
							OFFSET 0.000000 0.000000 0.000000
						}
					}
				}
			}
		}
	}
	JOINT lowerback
	{
		OFFSET 0.000000 0.000000 0.000000
		CHANNELS 3 Zrotation Yrotation Xrotation
		JOINT upperback
		{
			OFFSET 0.028270 2.035590 -0.193380
			CHANNELS 3 Zrotation Yrotation Xrotation
			JOINT thorax
			{
				OFFSET 0.056720 2.048850 -0.042750
				CHANNELS 3 Zrotation Yrotation Xrotation
				JOINT lowerneck
				{
					OFFSET 0.000000 0.000000 0.000000
					CHANNELS 3 Zrotation Yrotation Xrotation
					JOINT upperneck
					{
						OFFSET -0.054170 1.746240 0.172020
						CHANNELS 3 Zrotation Yrotation Xrotation
						JOINT head
						{
							OFFSET 0.104070 1.761360 -0.123970
							CHANNELS 3 Zrotation Yrotation Xrotation
							End Site
							{
								OFFSET 0.000000 0.000000 0.000000
							}
						}
					}
				}
				JOINT lclavicle
				{
					OFFSET 0.000000 0.000000 0.000000
					CHANNELS 3 Zrotation Yrotation Xrotation
					JOINT lhumerus
					{
						OFFSET 3.362410 1.200890 -0.311210
						CHANNELS 3 Zrotation Yrotation Xrotation
						JOINT lradius
						{
							OFFSET 4.983000 -0.000000 -0.000000
							CHANNELS 3 Zrotation Yrotation Xrotation
							JOINT lwrist
							{
								OFFSET 3.483560 -0.000000 -0.000000
								CHANNELS 3 Zrotation Yrotation Xrotation
								JOINT lhand
								{
									OFFSET 0.000000 0.000000 0.000000
									CHANNELS 3 Zrotation Yrotation Xrotation
									JOINT lfingers
									{
										OFFSET 0.715260 -0.000000 -0.000000
										CHANNELS 3 Zrotation Yrotation Xrotation
										End Site
										{
											OFFSET 0.000000 0.000000 0.000000
										}
									}
								}
								JOINT lthumb
								{
									OFFSET 0.000000 0.000000 0.000000
									CHANNELS 3 Zrotation Yrotation Xrotation
									End Site
									{
										OFFSET 0.000000 0.000000 0.000000
									}
								}
							}
						}
					}
				}
				JOINT rclavicle
				{
					OFFSET 0.000000 0.000000 0.000000
					CHANNELS 3 Zrotation Yrotation Xrotation
					JOINT rhumerus
					{
						OFFSET -3.136600 1.374050 -0.404650
						CHANNELS 3 Zrotation Yrotation Xrotation
						JOINT rradius
						{
							OFFSET -5.241900 -0.000000 -0.000000
							CHANNELS 3 Zrotation Yrotation Xrotation
							JOINT rwrist
							{
								OFFSET -3.444170 -0.000000 -0.000000
								CHANNELS 3 Zrotation Yrotation Xrotation
								JOINT rhand
								{
									OFFSET 0.000000 0.000000 0.000000
									CHANNELS 3 Zrotation Yrotation Xrotation
									JOINT rfingers
									{
										OFFSET -0.622530 -0.000000 -0.000000
										CHANNELS 3 Zrotation Yrotation Xrotation
										End Site
										{
											OFFSET 0.000000 0.000000 0.000000
										}
									}
								}
								JOINT rthumb
								{
									OFFSET 0.000000 0.000000 0.000000
									CHANNELS 3 Zrotation Yrotation Xrotation
									End Site
									{
										OFFSET 0.000000 0.000000 0.000000
									}
								}
							}
						}
					}
				}
			}
		}
	}
}
MOTION
Frames: 10
Frame Time: 0.008333
-0.774930 16.964008 -0.791278 -174.124742 -12.158283 162.752616 3.962552 3.357736 0.051141 -9.844371 3.201790 17.968886 1.469509 6.118225 22.379478 1.533048 -4.949871 9.507466 3.351600 -11.243500 -33.105700 -6.600566 -3.335992 -2.849577 32.401359 -6.236319 8.070785 -3.293340 -7.552941 24.981842 0.689616 -6.233339 -4.542112 -0.041800 1.320300 -3.630500 1.291454 -2.269784 19.941288 1.547705 -3.299126 -2.781305 7.013857 -1.964590 3.132196 -18.433114 -7.173778 -14.563681 9.884008 -9.818372 15.414454 5.318700 -4.811800 4.763600 -2.989052 -7.984789 7.142842 60.352612 -40.454067 -83.030405 40.860117 -57.233226 -18.108099 0.694852 -0.305833 75.654616 20.333391 6.467404 2.103700 -7.125000 0.000000 0.000000 -5.751200 36.130300 1.259200 6.070770 5.651526 6.502548 -49.875267 46.184749 -80.962531 -77.190636 67.845074 -43.779828 0.182658 -2.008832 -10.336709 -38.115787 2.845416 -4.216600 7.125000 0.000000 0.000000 -8.313200 -23.135900 -4.423500 
-0.759549 16.954625 -0.799887 -174.093438 -12.431071 162.660851 3.955966 3.353531 0.056925 -9.715576 3.169682 17.299861 1.644607 6.494283 23.520330 1.582123 -5.155736 9.452842 3.310600 -11.181600 -32.894800 -6.604598 -3.349476 -2.847737 32.385036 -6.489235 7.966911 -3.326180 -7.631624 25.228073 0.678108 -6.188850 -4.726922 -0.041200 1.310000 -3.602300 1.370538 -2.273739 20.255268 1.554356 -3.289950 -2.788703 7.017074 -1.935956 2.839091 -18.492725 -7.278348 -14.502092 9.899289 -9.911749 15.319316 5.319100 -4.854000 4.813400 -2.965958 -8.122911 7.219745 60.025084 -40.343823 -82.062003 39.920458 -56.692622 -17.466024 0.652315 -0.307970 75.902723 19.619931 6.733491 2.131200 -7.125000 0.000000 0.000000 -6.373900 36.420900 1.351400 6.019465 5.914851 6.089510 -48.085319 45.425340 -78.584860 -76.049152 67.626470 -42.953025 0.061778 -1.947922 -10.200175 -37.997088 4.683759 -5.517600 7.125000 0.000000 0.000000 -7.917000 -20.983600 -4.600200 
-0.746103 16.945339 -0.813043 -174.074479 -12.693106 162.577029 3.951936 3.352698 0.061188 -9.556999 3.237033 16.660705 1.809298 6.833273 24.561919 1.633280 -5.373254 9.453853 3.245400 -11.082100 -32.557400 -6.602492 -3.356578 -2.851783 32.335237 -6.757957 7.902028 -3.353379 -7.699796 25.439853 0.663086 -6.118574 -4.905662 -0.038400 1.264600 -3.477100 1.450719 -2.290026 20.518525 1.555875 -3.295016 -2.793464 6.980338 -1.908560 2.514344 -18.486394 -7.394074 -14.415976 9.870909 -10.016625 15.252029 5.288300 -4.901400 4.865100 -2.918041 -8.326984 7.205283 58.840350 -39.907728 -79.412068 39.542262 -56.267713 -17.098046 0.644141 -0.306720 75.030591 18.780028 7.233227 2.201200 -7.125000 0.000000 0.000000 -7.146900 36.916200 1.430200 5.955884 6.259779 5.663133 -46.251500 44.266920 -75.758800 -73.975763 67.350498 -41.491657 -0.046286 -1.831685 -10.081823 -37.686741 6.446683 -6.636100 7.125000 0.000000 0.000000 -7.416500 -19.052300 -4.628000 
-0.733625 16.936246 -0.829100 -174.023048 -12.933213 162.478712 3.949225 3.353723 0.062120 -9.316774 3.392763 16.062642 1.962999 7.137412 25.504342 1.683112 -5.586239 9.490758 3.150400 -10.934600 -32.059700 -6.597669 -3.360373 -2.859235 32.326499 -7.016809 7.889469 -3.373184 -7.753778 25.607723 0.651684 -6.072343 -5.083781 -0.037500 1.249300 -3.435000 1.580121 -2.318925 20.756705 1.554660 -3.310529 -2.791725 6.894893 -1.881770 2.174931 -18.438145 -7.504103 -14.302016 9.843410 -10.124827 15.175426 5.256000 -4.947400 4.904000 -2.853944 -8.589152 7.118901 57.009619 -39.229113 -75.590771 39.985527 -56.153110 -17.200962 0.665770 -0.314995 73.390712 17.852767 7.666528 2.213100 -7.125000 0.000000 0.000000 -8.011000 37.308100 1.528300 5.883806 6.665864 5.227813 -44.342278 42.717832 -72.289738 -71.755150 66.974526 -39.912274 -0.133158 -1.690924 -9.996652 -37.192909 7.901074 -7.420800 7.125000 0.000000 0.000000 -6.854000 -17.584000 -4.495500 
-0.721146 16.929765 -0.846416 -173.995484 -13.163055 162.403280 3.946176 3.355570 0.063890 -9.099706 3.560127 15.500836 2.103737 7.404802 26.337854 1.714064 -5.706788 9.558678 3.028900 -10.741600 -31.413400 -6.592426 -3.362568 -2.866381 32.305942 -7.242808 7.892516 -3.386656 -7.791912 25.725626 0.644327 -6.052228 -5.249472 -0.034300 1.195700 -3.287400 1.671642 -2.344922 20.959694 1.552945 -3.324970 -2.793259 6.832326 -1.848801 1.781391 -18.411158 -7.592558 -14.100698 9.819133 -10.220832 15.105247 5.234500 -4.989600 4.923800 -2.781723 -8.903158 7.006932 54.822548 -38.425707 -71.285455 41.026783 -56.296058 -17.689514 0.706078 -0.348672 71.579662 16.986730 7.783052 2.119900 -7.125000 0.000000 0.000000 -8.807800 37.362300 1.671200 5.805644 7.122998 4.753030 -42.261812 40.786052 -67.980742 -70.192066 66.550683 -38.750808 -0.204631 -1.554073 -10.041347 -36.492027 8.945467 -7.820900 7.125000 0.000000 0.000000 -6.218100 -16.660700 -4.199400 
-0.710022 16.924541 -0.865279 -173.944103 -13.395277 162.336583 3.942233 3.358025 0.064961 -8.851028 3.757021 14.982357 2.231937 7.638151 27.067221 1.729762 -5.754770 9.597189 2.963900 -10.636300 -31.063000 -6.587159 -3.364450 -2.874193 32.310372 -7.470460 7.924786 -3.390593 -7.810995 25.783409 0.641336 -6.057025 -5.397279 -0.031300 1.142800 -3.141900 1.785861 -2.384534 21.116417 1.553571 -3.353805 -2.794253 6.755426 -1.823202 1.401312 -18.350345 -7.674400 -13.877731 9.780287 -10.316201 15.026054 5.200700 -5.030300 4.920500 -2.709918 -9.218139 6.867145 52.664635 -37.504941 -67.044432 42.158710 -56.496672 -18.277195 0.757474 -0.415191 69.983479 16.495345 7.499621 1.958500 -7.125000 0.000000 0.000000 -9.255500 37.028200 1.834400 5.735632 7.578042 4.307331 -40.329163 38.620203 -63.495690 -69.143749 66.144919 -37.936201 -0.273934 -1.417592 -9.993778 -35.601054 9.741588 -7.966400 7.125000 0.000000 0.000000 -5.494600 -16.078100 -3.775600 
-0.699575 16.922123 -0.884722 -173.897892 -13.617479 162.278372 3.938164 3.359099 0.063590 -8.610034 3.961396 14.515957 2.347037 7.839311 27.698005 1.730534 -5.730053 9.619949 2.909700 -10.547400 -30.768100 -6.580410 -3.366662 -2.884772 32.299316 -7.722779 7.964816 -3.386566 -7.816912 25.795712 0.638243 -6.050095 -5.486227 -0.032800 1.169200 -3.214600 1.909506 -2.411821 21.229781 1.552366 -3.368786 -2.790434 6.648108 -1.792383 1.082762 -18.289970 -7.762922 -13.644439 9.744687 -10.434344 14.917302 5.172400 -5.081500 4.891700 -2.652999 -9.499505 6.734725 50.872618 -36.571408 -63.414571 42.906849 -56.577475 -18.679259 0.813124 -0.510987 69.038154 16.554198 6.789490 1.749800 -7.125000 0.000000 0.000000 -9.197200 36.291200 1.990200 5.672094 7.981501 3.911942 -38.664411 36.343444 -59.216794 -68.332459 65.759404 -37.298751 -0.350254 -1.274188 -9.822050 -34.609147 10.565196 -8.072600 7.125000 0.000000 0.000000 -4.702400 -15.494000 -3.286600 
-0.689998 16.920865 -0.906003 -173.864612 -13.835466 162.218002 3.932992 3.359444 0.061435 -8.360464 4.215734 14.103153 2.448598 8.007721 28.230032 1.718179 -5.643336 9.630632 2.907700 -10.544200 -30.757500 -6.573445 -3.366450 -2.894837 32.295260 -7.913922 8.068661 -3.376524 -7.806968 25.759344 0.643270 -6.104606 -5.606953 -0.030000 1.118200 -3.074000 2.014432 -2.436170 21.300236 1.551139 -3.382524 -2.788925 6.554652 -1.763264 0.800175 -18.287289 -7.815910 -13.368707 9.751117 -10.534402 14.813940 5.184800 -5.127200 4.845300 -2.611233 -9.751262 6.607595 49.392810 -35.628838 -60.328666 43.181214 -56.488557 -18.827330 0.873052 -0.627730 68.841098 17.161965 5.805837 1.516000 -7.125000 0.000000 0.000000 -8.664400 35.292100 2.085900 5.609723 8.311267 3.596200 -37.445216 34.063944 -55.371962 -67.123417 65.343721 -36.400059 -0.426334 -1.110684 -9.542073 -33.691187 11.584452 -8.290200 7.125000 0.000000 0.000000 -3.947100 -14.695800 -2.823500 
-0.681679 16.919414 -0.927478 -173.817508 -14.048182 162.170978 3.927037 3.361965 0.056418 -8.063899 4.559854 13.710276 2.533542 8.143333 28.659845 1.708335 -5.574425 9.604229 3.032500 -10.747500 -31.432900 -6.566003 -3.367363 -2.907002 32.289389 -8.150573 8.159125 -3.360221 -7.787661 25.691266 0.644259 -6.124508 -5.703486 -0.029100 1.101000 -3.026700 2.126299 -2.466153 21.317206 1.551706 -3.405090 -2.783253 6.461838 -1.744805 0.590004 -18.281115 -7.882317 -13.116401 9.743166 -10.654049 14.693382 5.191500 -5.182000 4.783500 -2.574207 -9.968142 6.472540 48.093159 -34.623322 -57.653346 43.217744 -56.322744 -18.870203 0.938994 -0.760311 69.406943 18.285072 4.706810 1.263600 -7.125000 0.000000 0.000000 -7.720500 34.167900 2.067700 5.556258 8.586042 3.348364 -36.671147 31.740888 -51.943482 -65.755469 64.923222 -35.405858 -0.495766 -0.936986 -9.355753 -32.934399 12.755336 -8.618800 7.125000 0.000000 0.000000 -3.292400 -13.712900 -2.422100 
-0.674037 16.919511 -0.949823 -173.762300 -14.254379 162.123011 3.921188 3.361697 0.056454 -7.774308 4.738305 13.429295 2.602349 8.248210 28.982347 1.665876 -5.341308 9.600182 2.910400 -10.548500 -30.772000 -6.558999 -3.367679 -2.916527 32.304225 -8.346570 8.277422 -3.339694 -7.757481 25.590759 0.650937 -6.179420 -5.782365 -0.028000 1.079500 -2.967700 2.258264 -2.499603 21.336328 1.551896 -3.425728 -2.783700 6.358569 -1.723032 0.352535 -18.301944 -7.937886 -12.835032 9.747771 -10.767630 14.565977 5.214400 -5.235600 4.716100 -2.540815 -10.182763 6.332483 46.938579 -33.533454 -55.201208 43.106560 -56.110510 -18.847364 0.999137 -0.894703 70.585807 19.695866 3.820385 1.052700 -7.125000 0.000000 0.000000 -6.585800 33.244100 1.908400 5.497615 8.844944 3.129799 -36.062824 29.360399 -48.602052 -64.692948 64.528538 -34.642871 -0.558241 -0.767945 -9.386581 -32.349092 13.899680 -8.964200 7.125000 0.000000 0.000000 -2.761300 -12.734400 -2.087200 
